<svg xmlns="http://www.w3.org/2000/svg" x="0px" y="0px"
width="52" height="52"
viewBox="0 0 172 172"
style=" fill:#fffffe;"><g fill="none" fill-rule="nonzero" stroke="none" stroke-width="1" stroke-linecap="butt" stroke-linejoin="miter" stroke-miterlimit="10" stroke-dasharray="" stroke-dashoffset="0" font-family="none" font-weight="none" font-size="none" text-anchor="none" style="mix-blend-mode: normal"><path d="M0,172v-172h172v172z" fill="none"></path><g fill="#fffffe"><path d="M19.84615,6.61538c-10.95673,0 -19.84615,8.88942 -19.84615,19.84615v92.61538c0,10.95673 8.88942,19.84615 19.84615,19.84615h46.30769v6.61538c0,3.64363 2.97176,6.61538 6.61538,6.61538h26.46154c3.64363,0 6.61538,-3.41106 6.61538,-6.61538v-6.61538h46.30769c10.95673,0 19.84615,-8.88942 19.84615,-19.84615v-92.61538c0,-10.95673 -8.88942,-19.84615 -19.84615,-19.84615zM19.84615,19.84615h132.30769c3.64363,0 6.61538,2.97176 6.61538,6.61538v79.38462c0,3.64363 -2.97176,6.61538 -6.61538,6.61538h-132.30769c-3.64363,0 -6.61538,-2.97176 -6.61538,-6.61538v-79.38462c0,-3.64363 2.97176,-6.61538 6.61538,-6.61538zM71.94231,26.46154c-2.2482,0.28426 -4.18629,1.67969 -5.16827,3.72115l-17.98558,35.97115h-28.94231v13.23077h33.07692c2.55829,0.02584 4.88401,-1.42128 5.99519,-3.72115l12.19712,-24.60096l15.09135,50.02885c0.72356,2.6875 3.04928,4.65144 5.84015,4.88401c2.76502,0.23258 5.40084,-1.3179 6.5637,-3.85036l11.37019,-22.74038h42.17308v-13.23077h-46.30769c-2.55829,-0.02584 -4.88401,1.42128 -5.99519,3.72115l-5.58173,11.37019l-15.09135,-50.02885c-0.90445,-3.15264 -3.97956,-5.19411 -7.23558,-4.75481zM154.01442,120.9375c2.66166,0 4.75481,2.11899 4.75481,4.75481c0,2.63582 -2.09315,4.75481 -4.75481,4.75481c-2.63581,0 -4.75481,-2.09315 -4.75481,-4.75481c0,-2.66166 2.11899,-4.75481 4.75481,-4.75481zM39.69231,158.76923c-3.64363,0 -6.61538,6.61538 -6.61538,6.61538v6.61538h105.84615v-6.61538c0,-3.64363 -2.97176,-6.61538 -6.61538,-6.61538z"></path></g></g></svg>